<?xml version="1.0" encoding="UTF-8" standalone="no"?>
<svg width="550px" height="550px" viewBox="0 0 550 550" version="1.1" xmlns="http://www.w3.org/2000/svg" xmlns:xlink="http://www.w3.org/1999/xlink">
    <!-- Generator: Sketch 39.1 (31720) - http://www.bohemiancoding.com/sketch -->
    <title></title>
    <desc>Created with Sketch.</desc>
    <defs></defs>
    <g id="slices" stroke="none" stroke-width="1" fill="none" fill-rule="evenodd" stroke-linecap="round">
        <g id="svg" stroke="#FFFFFF">
            <g id="u_img_apollo">
                <g id="Page-1" transform="translate(134.000000, 46.000000)">
                    <path d="M141.5,129 L141.5,129 C107.534584,129 80,156.413805 80,190.230233 L80,362 L203,362 L203,190.230233 C203,156.413805 175.465416,129 141.5,129 L141.5,129 Z" id="Stroke-1" stroke-width="10" stroke-linejoin="round"></path>
                    <path d="M171,228 C171,244.568727 157.568727,258 141,258 C124.431273,258 111,244.568727 111,228 C111,211.431273 124.431273,198 141,198 C157.568727,198 171,211.431273 171,228 L171,228 Z" id="Stroke-3" stroke-width="10" stroke-linejoin="round"></path>
                    <path d="M163,362 C163,317.015267 141,291 141,291 C141,291 119,317.015267 119,362" id="Stroke-5" stroke-width="10" stroke-linejoin="round"></path>
                    <path d="M202.968525,222 C202.968525,255.080769 282,304.515385 282,362 L202,362" id="Stroke-7" stroke-width="10" stroke-linejoin="round"></path>
                    <path d="M80,221 C80,254.080769 0,304.515385 0,362 L80,362" id="Stroke-9" stroke-width="10" stroke-linejoin="round"></path>
                    <path d="M203,192 C203,100.602041 141.5,86 141.5,86 C141.5,86 80,100.602041 80,192" id="Stroke-11" stroke-width="10" stroke-linejoin="round"></path>
                    <polyline id="Stroke-13" stroke-width="10" stroke-linejoin="round" points="176.828571 362 198 398 141 398 84 398 105.171429 362"></polyline>
                    <g id="Group-2" transform="translate(247.000000, 80.000000)" stroke-width="6">
                        <path d="M9,0.537685327 L9,17.0096186" id="Path-2"></path>
                        <path d="M17.2359666,9 L0.764033375,9" id="Path-2"></path>
                    </g>
                    <g id="Group-2-Copy-3" transform="translate(184.000000, 0.000000)" stroke-width="6">
                        <path d="M9,0.537685327 L9,17.0096186" id="Path-2"></path>
                        <path d="M17.2359666,9 L0.764033375,9" id="Path-2"></path>
                    </g>
                    <g id="Group-2-Copy" transform="translate(0.000000, 155.000000)" stroke-width="6">
                        <path d="M9,0.537685327 L9,17.0096186" id="Path-2"></path>
                        <path d="M17.2359666,9 L0.764033375,9" id="Path-2"></path>
                    </g>
                    <g id="Group-2-Copy-2" transform="translate(40.000000, 18.000000)" stroke-width="6">
                        <path d="M9,0.537685327 L9,17.0096186" id="Path-2"></path>
                        <path d="M17.2359666,9 L0.764033375,9" id="Path-2"></path>
                    </g>
                </g>
            </g>
        </g>
    </g>
</svg>